<?xml version="1.0" encoding="utf-8" ?><svg xmlns="http://www.w3.org/2000/svg" xmlns:xlink="http://www.w3.org/1999/xlink" width="40" height="40"><path fill="#7A8B6F" transform="matrix(1 0 0 1 12 14)" d="M-0.2805 8.1865Q-1 10.9618 -1 14L1 14Q1 11.2168 1.6555 8.6885Q2.266 6.3336 3.3575 4.5145Q4.3878 2.7974 5.6539 1.8689Q6.8387 1 8 1Q9.1613 1 10.3461 1.8689Q11.6122 2.7974 12.6425 4.5145Q13.734 6.3336 14.3445 8.6885Q15 11.2168 15 14L17 14Q17 10.9618 16.2805 8.1865Q15.5975 5.5522 14.3575 3.4855Q13.1199 1.4229 11.5289 0.2561Q9.816 -1 8 -1Q6.184 -1 4.4711 0.2561Q2.8801 1.4229 1.6425 3.4855Q0.4025 5.5522 -0.2805 8.1865Z" fill-rule="evenodd"/><path fill="#7A8B6F" transform="matrix(1 0 0 1 16 28)" d="M1 4L1 0Q1.0121 -0.4192 0.7071 -0.7071Q0.4192 -1.0121 0 -1Q-0.4192 -1.0121 -0.7071 -0.7071Q-1.0121 -0.4192 -1 0L-1 4Q-1.0121 4.4192 -0.7071 4.7071Q-0.4192 5.0121 0 5Q0.4192 5.0121 0.7071 4.7071Q1.0121 4.4192 1 4ZM9 4L9 0Q9.0121 -0.4192 8.7071 -0.7071Q8.4192 -1.0121 8 -1Q7.5808 -1.0121 7.2929 -0.7071Q6.9879 -0.4192 7 0L7 4Q6.9879 4.4192 7.2929 4.7071Q7.5808 5.0121 8 5Q8.4192 5.0121 8.7071 4.7071Q9.0121 4.4192 9 4Z" fill-rule="evenodd"/></svg>